<svg width="17" height="17" viewBox="0 0 17 17" fill="none" xmlns="http://www.w3.org/2000/svg">
<path d="M1.75742 1.07438L2.37069 0.461106C2.76122 0.0705756 3.39438 0.0705756 3.78491 0.461106L6.3707 3.04689C6.7612 3.43742 6.7612 4.07058 6.3707 4.46111L4.57828 6.25352C4.2794 6.5524 4.2053 7.009 4.39433 7.38707C5.4871 9.5726 7.2592 11.3447 9.4447 12.4375C9.8228 12.6265 10.2794 12.5524 10.5783 12.2535L12.3707 10.4611C12.7612 10.0706 13.3944 10.0706 13.7849 10.4611L16.3707 13.0469C16.7612 13.4374 16.7612 14.0706 16.3707 14.4611L15.7574 15.0744C13.6461 17.1857 10.3035 17.4233 7.9148 15.6317L6.7064 14.7254C4.96284 13.4178 3.41402 11.869 2.10637 10.1254L1.20006 8.917C-0.591478 6.5283 -0.353929 3.18573 1.75742 1.07438Z" fill="#000000"/>
</svg>
