<svg width="44" height="44" viewBox="0 0 44 44" fill="none" xmlns="http://www.w3.org/2000/svg">
<g clip-path="url(#clip0_202_82)">
<path d="M21.9752 43.226C33.7116 43.226 43.2259 33.7117 43.2259 21.9754C43.2259 10.239 33.7116 0.724727 21.9752 0.724727C10.2388 0.724727 0.724609 10.239 0.724609 21.9754C0.724609 33.7117 10.2388 43.226 21.9752 43.226Z" fill="#B2B2B2"/>
<path d="M21.9738 28.9996C27.2597 28.9996 31.5448 24.7146 31.5448 19.4287C31.5448 14.1427 27.2597 9.85767 21.9738 9.85767C16.6879 9.85767 12.4028 14.1427 12.4028 19.4287C12.4028 24.7146 16.6879 28.9996 21.9738 28.9996Z" fill="#6D6D6D"/>
<path d="M5.68286 35.6192C9.5809 30.9692 15.433 28.0125 21.9753 28.0125C28.5176 28.0125 34.3698 30.9692 38.2678 35.6192C34.3698 40.2692 28.5181 43.226 21.9753 43.226C15.433 43.226 9.5809 40.2692 5.68286 35.6192Z" fill="#6D6D6D"/>
<path d="M21.9753 43.7089C9.99139 43.7089 0.241699 33.9593 0.241699 21.9754C0.241699 9.99145 9.99139 0.241758 21.9753 0.241758C33.9592 0.241758 43.7089 9.99145 43.7089 21.9754C43.7089 33.9593 33.9592 43.7089 21.9753 43.7089ZM21.9753 1.2077C10.5241 1.2077 1.20764 10.5242 1.20764 21.9754C1.20764 33.4265 10.5241 42.743 21.9753 42.743C33.4265 42.743 42.743 33.4265 42.743 21.9754C42.743 10.5242 33.4265 1.2077 21.9753 1.2077Z" fill="#2B2B2B"/>
<path d="M38.2678 35.6192C35.0918 31.8308 30.619 29.1677 25.5329 28.3105C29.0557 26.8978 31.5463 23.4576 31.5463 19.4301C31.5463 14.144 27.2609 9.85912 21.9753 9.85912C16.6897 9.85912 12.4043 14.144 12.4043 19.4301C12.4043 23.4576 14.895 26.8978 18.4178 28.3105C13.3316 29.1677 8.85838 31.8313 5.68286 35.6192C9.5809 40.2692 15.433 43.226 21.9753 43.226C28.5181 43.226 34.3698 40.2692 38.2678 35.6192Z" fill="#6D6D6D"/>
<path d="M21.9752 43.7089C15.5305 43.7089 9.45717 40.8734 5.31281 35.9298L5.05249 35.6192L5.31281 35.3087C8.32605 31.7149 12.4086 29.1972 16.9263 28.1206C13.8454 26.3399 11.9213 23.0654 11.9213 19.4296C11.9213 13.8856 16.4317 9.37566 21.9752 9.37566C27.5188 9.37566 32.0292 13.8861 32.0292 19.4296C32.0292 23.0654 30.1055 26.3404 27.0247 28.1206C31.5424 29.1972 35.6254 31.7144 38.6381 35.3087L38.898 35.6192L38.6381 35.9298C34.4933 40.8734 28.42 43.7089 21.9752 43.7089ZM6.31787 35.6192C10.27 40.1519 15.9531 42.743 21.9752 42.743C27.9979 42.743 33.6805 40.1519 37.6326 35.6192C34.4778 32.0023 30.1683 29.5811 25.4526 28.7871L23.7593 28.5017L25.3531 27.8627C28.8223 26.4708 31.0633 23.1615 31.0633 19.4301C31.0633 14.4188 26.9865 10.3421 21.9752 10.3421C16.964 10.3421 12.8872 14.4188 12.8872 19.4301C12.8872 23.1615 15.1287 26.4708 18.5974 27.8627L20.1911 28.5017L18.4979 28.7871C13.7826 29.5811 9.4731 32.0018 6.31787 35.6192Z" fill="#2B2B2B"/>
</g>
<defs>
<clipPath id="clip0_202_82">
<rect width="44" height="44" fill="white"/>
</clipPath>
</defs>
</svg>
